<svg xmlns="http://www.w3.org/2000/svg" xmlns:xlink="http://www.w3.org/1999/xlink" width="600" zoomAndPan="magnify" viewBox="0 0 450 112.499997" height="150" preserveAspectRatio="xMidYMid meet" version="1.0"><defs><g/><clipPath id="id1"><path d="M 5.214844 3.066406 L 110.496094 3.066406 L 110.496094 108.585938 L 5.214844 108.585938 Z M 5.214844 3.066406 " clip-rule="nonzero"/></clipPath></defs><g clip-path="url(#id1)"><path fill="#100f0d" d="M 86.691406 35.726562 C 86.890625 35.675781 87.046875 35.519531 87.097656 35.320312 L 87.980469 32.015625 L 88.863281 35.320312 C 88.914062 35.519531 89.070312 35.675781 89.273438 35.726562 L 92.574219 36.609375 L 89.273438 37.492188 C 89.070312 37.542969 88.914062 37.699219 88.863281 37.902344 L 87.980469 41.203125 L 87.097656 37.902344 C 87.046875 37.699219 86.890625 37.542969 86.691406 37.492188 L 83.390625 36.609375 Z M 81.058594 37.152344 L 86.082031 38.511719 L 87.4375 43.535156 C 87.527344 43.835938 87.839844 44.007812 88.140625 43.917969 C 88.328125 43.867188 88.472656 43.71875 88.523438 43.535156 L 89.882812 38.511719 L 94.90625 37.152344 C 95.207031 37.066406 95.378906 36.753906 95.289062 36.453125 C 95.234375 36.265625 95.089844 36.121094 94.90625 36.066406 L 89.882812 34.710938 L 88.523438 29.6875 C 88.4375 29.386719 88.121094 29.214844 87.824219 29.300781 C 87.636719 29.355469 87.492188 29.5 87.4375 29.6875 L 86.082031 34.710938 L 81.058594 36.066406 C 80.761719 36.167969 80.601562 36.488281 80.703125 36.785156 C 80.757812 36.945312 80.878906 37.070312 81.035156 37.132812 Z M 28.519531 42.992188 C 28.71875 42.941406 28.875 42.785156 28.925781 42.585938 L 29.808594 39.28125 L 30.691406 42.585938 C 30.742188 42.785156 30.898438 42.941406 31.097656 42.992188 L 34.402344 43.875 L 31.097656 44.757812 C 30.898438 44.808594 30.742188 44.964844 30.691406 45.164062 L 29.785156 48.445312 L 28.902344 45.140625 C 28.851562 44.941406 28.695312 44.785156 28.496094 44.734375 L 25.191406 43.875 Z M 22.882812 44.417969 L 27.90625 45.773438 L 29.265625 50.796875 C 29.351562 51.097656 29.667969 51.269531 29.96875 51.183594 C 30.152344 51.128906 30.296875 50.984375 30.351562 50.796875 L 31.710938 45.773438 L 36.730469 44.417969 C 37.03125 44.328125 37.203125 44.015625 37.117188 43.714844 C 37.0625 43.53125 36.917969 43.386719 36.730469 43.332031 L 31.710938 41.972656 L 30.351562 36.949219 C 30.265625 36.652344 29.949219 36.476562 29.652344 36.566406 C 29.464844 36.621094 29.320312 36.765625 29.265625 36.949219 L 27.90625 41.972656 L 22.882812 43.332031 C 22.585938 43.417969 22.414062 43.730469 22.5 44.03125 C 22.554688 44.21875 22.699219 44.363281 22.882812 44.417969 Z M 58.566406 19.480469 C 60.460938 19.476562 62.296875 20.125 63.769531 21.3125 C 60.222656 20.523438 56.703125 22.753906 55.910156 26.304688 C 55.117188 29.855469 57.351562 33.375 60.898438 34.167969 C 61.847656 34.378906 62.824219 34.378906 63.769531 34.167969 C 60.234375 37.046875 55.03125 36.515625 52.152344 32.980469 C 49.269531 29.441406 49.804688 24.242188 53.339844 21.359375 C 54.816406 20.15625 56.664062 19.5 58.566406 19.503906 Z M 58.566406 37.152344 C 61.746094 37.15625 64.710938 35.546875 66.441406 32.878906 C 66.621094 32.621094 66.5625 32.269531 66.308594 32.089844 C 66.101562 31.941406 65.824219 31.949219 65.628906 32.105469 C 63.222656 33.921875 59.800781 33.4375 57.992188 31.03125 C 56.179688 28.628906 56.660156 25.207031 59.066406 23.394531 C 61.007812 21.933594 63.683594 21.933594 65.628906 23.394531 C 65.871094 23.589844 66.226562 23.550781 66.421875 23.308594 C 66.578125 23.109375 66.585938 22.832031 66.441406 22.625 C 63.605469 18.285156 57.785156 17.066406 53.445312 19.902344 C 49.101562 22.738281 47.882812 28.558594 50.71875 32.898438 C 52.453125 35.550781 55.402344 37.148438 58.566406 37.152344 Z M 99.453125 86.164062 L 79.453125 73.269531 C 79.316406 73.183594 79.152344 73.15625 79 73.199219 L 63.070312 77.226562 L 43.8125 70.054688 C 43.640625 69.988281 43.445312 70.015625 43.292969 70.121094 L 17.320312 87.613281 C 15.128906 84.828125 13.234375 81.828125 11.664062 78.652344 L 28.8125 61.5 L 35.285156 67.972656 C 35.503906 68.1875 35.855469 68.1875 36.078125 67.972656 L 59.066406 44.984375 L 82.191406 68.109375 C 82.410156 68.324219 82.761719 68.324219 82.980469 68.109375 L 85.96875 65.121094 L 102.417969 81.570312 C 101.511719 83.152344 100.523438 84.6875 99.453125 86.164062 Z M 57.84375 4.386719 C 86.21875 4.386719 109.320312 27.492188 109.320312 55.867188 C 109.320312 64.492188 107.160156 72.980469 103.027344 80.554688 L 86.398438 63.921875 C 86.179688 63.707031 85.824219 63.707031 85.605469 63.921875 L 82.621094 66.910156 L 59.449219 43.785156 C 59.230469 43.566406 58.878906 43.566406 58.65625 43.785156 L 35.667969 66.773438 L 29.199219 60.300781 C 28.976562 60.085938 28.625 60.085938 28.40625 60.300781 L 11.140625 77.566406 C 7.972656 70.773438 6.34375 63.363281 6.367188 55.867188 C 6.367188 27.492188 29.46875 4.386719 57.84375 4.386719 Z M 91.015625 96.371094 L 90.019531 96.054688 C 80.886719 103.367188 69.539062 107.355469 57.84375 107.367188 C 46.492188 107.410156 35.453125 103.660156 26.484375 96.710938 L 26.597656 96.664062 L 55.625 84.875 L 90.039062 96.054688 L 55.601562 84.851562 L 55.671875 84.851562 L 90.175781 96.078125 L 91.171875 96.394531 L 91.015625 96.394531 Z M 95.042969 18.667969 C 74.496094 -1.878906 41.1875 -1.878906 20.644531 18.667969 C 10.777344 28.535156 5.238281 41.914062 5.234375 55.867188 C 5.214844 63.808594 7.011719 71.648438 10.484375 78.789062 C 13.910156 85.835938 18.855469 92.035156 24.964844 96.9375 C 24.71875 96.746094 24.671875 96.390625 24.863281 96.144531 C 24.925781 96.0625 25.007812 96 25.101562 95.964844 L 25.417969 95.828125 C 22.722656 93.636719 20.25 91.179688 18.042969 88.496094 L 43.703125 71.207031 L 62.84375 78.335938 C 62.953125 78.378906 63.070312 78.386719 63.183594 78.359375 L 79.042969 74.355469 L 98.773438 87.09375 C 96.515625 90.046875 93.941406 92.746094 91.105469 95.148438 L 55.828125 83.699219 C 55.703125 83.660156 55.566406 83.667969 55.445312 83.722656 L 25.578125 95.851562 L 25.261719 95.984375 C 24.96875 96.101562 24.828125 96.429688 24.945312 96.722656 C 25.019531 96.910156 25.191406 97.046875 25.398438 97.070312 L 25.328125 97.070312 C 25.199219 97.078125 25.070312 97.039062 24.964844 96.957031 C 34.273438 104.46875 45.882812 108.542969 57.84375 108.5 C 70.09375 108.496094 81.960938 104.222656 91.398438 96.414062 C 91.636719 96.402344 91.835938 96.238281 91.894531 96.007812 C 103.679688 86.023438 110.464844 71.355469 110.449219 55.914062 C 110.5 41.9375 104.949219 28.523438 95.042969 18.667969 " fill-opacity="1" fill-rule="nonzero"/></g><g fill="#000000" fill-opacity="1"><g transform="translate(119.475758, 68.674709)"><g><path d="M 3.210938 0 L 9.285156 0 L 9.285156 -10.8125 L 12.492188 -10.8125 C 12.992188 -10.8125 13.410156 -10.8125 13.867188 -10.851562 L 19.601562 0 L 26.667969 0 L 19.445312 -13.105469 C 20.515625 -14.136719 21.320312 -15.472656 22.007812 -17.230469 L 25.714844 -26.746094 L 19.140625 -26.746094 L 16.621094 -19.792969 C 15.703125 -17.269531 14.59375 -16.46875 11.578125 -16.46875 L 9.285156 -16.46875 L 9.285156 -26.746094 L 3.210938 -26.746094 Z M 3.210938 0 "/></g></g></g><g fill="#000000" fill-opacity="1"><g transform="translate(147.251698, 68.674709)"><g><path d="M 2.980469 7.640625 L 5.691406 7.640625 C 10.355469 7.640625 12.300781 6.496094 13.945312 2.367188 L 22.886719 -20.058594 L 16.65625 -20.058594 L 13.984375 -12.761719 L 12.148438 -7.640625 L 6.761719 -20.058594 L 0.34375 -20.058594 L 9.359375 -0.648438 L 9.132812 0.0390625 C 8.445312 2.023438 7.640625 2.636719 5.273438 2.636719 L 2.980469 2.636719 Z M 2.980469 7.640625 "/></g></g></g><g fill="#000000" fill-opacity="1"><g transform="translate(170.442878, 68.674709)"><g><path d="M 10.890625 0.535156 C 13.523438 0.535156 15.894531 -0.382812 17.5 -2.253906 L 18.109375 0 L 22.425781 0 L 22.425781 -20.058594 L 16.621094 -20.058594 L 16.621094 -9.589844 C 16.621094 -6.417969 14.902344 -4.46875 12.265625 -4.46875 C 9.820312 -4.46875 8.328125 -6.191406 8.328125 -9.132812 L 8.328125 -20.058594 L 2.523438 -20.058594 L 2.523438 -8.558594 C 2.523438 -2.980469 5.691406 0.535156 10.890625 0.535156 Z M 10.890625 0.535156 "/></g></g></g><g fill="#000000" fill-opacity="1"><g transform="translate(195.773619, 68.674709)"><g><path d="M 2.179688 -16.621094 L 6.914062 -16.621094 L 7.144531 -26.746094 L 1.949219 -26.746094 Z M 2.179688 -16.621094 "/></g></g></g><g fill="#000000" fill-opacity="1"><g transform="translate(204.866712, 68.674709)"><g><path d="M 10.621094 0.535156 C 16.046875 0.535156 19.332031 -1.832031 19.332031 -5.65625 C 19.332031 -8.941406 16.886719 -11.042969 11.921875 -12.035156 C 8.480469 -12.722656 7.414062 -13.296875 7.414062 -14.519531 C 7.414062 -15.703125 8.480469 -16.390625 10.203125 -16.390625 C 12.148438 -16.390625 13.335938 -15.511719 13.449219 -13.984375 L 18.988281 -13.984375 C 18.722656 -18.226562 15.589844 -20.59375 10.238281 -20.59375 C 4.851562 -20.59375 1.796875 -18.414062 1.796875 -14.519531 C 1.796875 -11.195312 4.089844 -9.207031 9.207031 -8.289062 C 12.300781 -7.757812 13.601562 -6.953125 13.601562 -5.691406 C 13.601562 -4.507812 12.53125 -3.78125 10.699219 -3.78125 C 8.558594 -3.78125 7.257812 -4.8125 7.222656 -6.457031 L 1.527344 -6.457031 C 1.527344 -2.253906 5.121094 0.535156 10.621094 0.535156 Z M 10.621094 0.535156 "/></g></g></g><g fill="#000000" fill-opacity="1"><g transform="translate(225.76552, 68.674709)"><g/></g></g><g fill="#000000" fill-opacity="1"><g transform="translate(234.743999, 68.674709)"><g><path d="M 3.210938 0 L 21.203125 0 L 21.203125 -5.15625 L 9.246094 -5.15625 L 9.246094 -11.003906 L 19.753906 -11.003906 L 19.753906 -16.085938 L 9.246094 -16.085938 L 9.246094 -21.625 L 20.785156 -21.625 L 20.785156 -26.746094 L 3.210938 -26.746094 Z M 3.210938 0 "/></g></g></g><g fill="#000000" fill-opacity="1"><g transform="translate(257.896985, 68.674709)"><g><path d="M 2.902344 0 L 8.710938 0 L 8.710938 -10.851562 C 8.710938 -13.753906 10.316406 -15.625 12.800781 -15.625 C 15.207031 -15.625 16.695312 -13.832031 16.695312 -11.003906 L 16.695312 0 L 22.425781 0 L 22.425781 -10.851562 C 22.425781 -13.753906 24.03125 -15.625 26.515625 -15.625 C 28.921875 -15.625 30.414062 -13.832031 30.414062 -11.003906 L 30.414062 0 L 36.21875 0 L 36.21875 -11.691406 C 36.21875 -17.191406 32.933594 -20.59375 27.816406 -20.59375 C 24.757812 -20.59375 22.238281 -19.410156 20.59375 -17.308594 C 19.179688 -19.445312 16.847656 -20.59375 13.984375 -20.59375 C 11.425781 -20.59375 9.246094 -19.714844 7.792969 -17.996094 L 7.222656 -20.058594 L 2.902344 -20.058594 Z M 2.902344 0 "/></g></g></g><g fill="#000000" fill-opacity="1"><g transform="translate(296.638109, 68.674709)"><g><path d="M 15.054688 0.535156 C 21.050781 0.535156 25.292969 -3.820312 25.292969 -10.046875 C 25.292969 -16.199219 21.050781 -20.59375 15.054688 -20.59375 C 12.148438 -20.59375 9.667969 -19.5625 7.871094 -17.765625 L 7.222656 -20.058594 L 2.902344 -20.058594 L 2.902344 7.640625 L 8.710938 7.640625 L 8.710938 -1.566406 C 10.390625 -0.230469 12.570312 0.535156 15.054688 0.535156 Z M 8.480469 -10.046875 C 8.480469 -13.296875 10.773438 -15.625 14.023438 -15.625 C 17.308594 -15.625 19.5625 -13.296875 19.5625 -10.046875 C 19.5625 -6.761719 17.308594 -4.46875 14.023438 -4.46875 C 10.773438 -4.46875 8.480469 -6.761719 8.480469 -10.046875 Z M 8.480469 -10.046875 "/></g></g></g><g fill="#000000" fill-opacity="1"><g transform="translate(323.420666, 68.674709)"><g><path d="M 12.761719 0.535156 C 19.410156 0.535156 23.992188 -3.78125 23.992188 -10.046875 C 23.992188 -16.277344 19.410156 -20.59375 12.761719 -20.59375 C 6.074219 -20.59375 1.488281 -16.277344 1.488281 -10.046875 C 1.488281 -3.78125 6.074219 0.535156 12.761719 0.535156 Z M 7.222656 -10.046875 C 7.222656 -13.335938 9.511719 -15.625 12.761719 -15.625 C 16.007812 -15.625 18.261719 -13.335938 18.261719 -10.046875 C 18.261719 -6.761719 16.007812 -4.46875 12.761719 -4.46875 C 9.511719 -4.46875 7.222656 -6.761719 7.222656 -10.046875 Z M 7.222656 -10.046875 "/></g></g></g><g fill="#000000" fill-opacity="1"><g transform="translate(348.90423, 68.674709)"><g><path d="M 2.902344 0 L 8.710938 0 L 8.710938 -8.863281 C 8.710938 -13.179688 10.734375 -14.785156 14.058594 -14.785156 L 16.277344 -14.785156 L 16.277344 -20.058594 L 14.097656 -20.058594 C 11.15625 -20.058594 9.285156 -19.257812 7.984375 -17.382812 L 7.222656 -20.058594 L 2.902344 -20.058594 Z M 2.902344 0 "/></g></g></g><g fill="#000000" fill-opacity="1"><g transform="translate(366.479126, 68.674709)"><g><path d="M 2.902344 0 L 8.710938 0 L 8.710938 -20.058594 L 2.902344 -20.058594 Z M 2.0625 -26.554688 C 2.0625 -24.414062 3.589844 -22.925781 5.808594 -22.925781 C 8.023438 -22.925781 9.550781 -24.414062 9.550781 -26.554688 C 9.550781 -28.691406 8.023438 -30.183594 5.808594 -30.183594 C 3.589844 -30.183594 2.0625 -28.691406 2.0625 -26.554688 Z M 2.0625 -26.554688 "/></g></g></g><g fill="#000000" fill-opacity="1"><g transform="translate(378.093813, 68.674709)"><g><path d="M 10.890625 0.535156 C 13.523438 0.535156 15.894531 -0.382812 17.5 -2.253906 L 18.109375 0 L 22.425781 0 L 22.425781 -20.058594 L 16.621094 -20.058594 L 16.621094 -9.589844 C 16.621094 -6.417969 14.902344 -4.46875 12.265625 -4.46875 C 9.820312 -4.46875 8.328125 -6.191406 8.328125 -9.132812 L 8.328125 -20.058594 L 2.523438 -20.058594 L 2.523438 -8.558594 C 2.523438 -2.980469 5.691406 0.535156 10.890625 0.535156 Z M 10.890625 0.535156 "/></g></g></g><g fill="#000000" fill-opacity="1"><g transform="translate(403.424533, 68.674709)"><g><path d="M 2.902344 0 L 8.710938 0 L 8.710938 -10.851562 C 8.710938 -13.753906 10.316406 -15.625 12.800781 -15.625 C 15.207031 -15.625 16.695312 -13.832031 16.695312 -11.003906 L 16.695312 0 L 22.425781 0 L 22.425781 -10.851562 C 22.425781 -13.753906 24.03125 -15.625 26.515625 -15.625 C 28.921875 -15.625 30.414062 -13.832031 30.414062 -11.003906 L 30.414062 0 L 36.21875 0 L 36.21875 -11.691406 C 36.21875 -17.191406 32.933594 -20.59375 27.816406 -20.59375 C 24.757812 -20.59375 22.238281 -19.410156 20.59375 -17.308594 C 19.179688 -19.445312 16.847656 -20.59375 13.984375 -20.59375 C 11.425781 -20.59375 9.246094 -19.714844 7.792969 -17.996094 L 7.222656 -20.058594 L 2.902344 -20.058594 Z M 2.902344 0 "/></g></g></g></svg>